<?xml version="1.0" encoding="UTF-8"?>
<svg id="Layer_1" data-name="Layer 1" xmlns="http://www.w3.org/2000/svg" xmlns:xlink="http://www.w3.org/1999/xlink" viewBox="0 0 1366 195.94">
  <defs>
    <style>
      .cls-1 {
        fill: #2e2e2d;
      }

      .cls-2 {
        fill: url(#linear-gradient-7);
        stroke: url(#linear-gradient-8);
      }

      .cls-2, .cls-3, .cls-4, .cls-5 {
        stroke-miterlimit: 10;
        stroke-width: 2px;
      }

      .cls-3 {
        fill: url(#linear-gradient-5);
        stroke: url(#linear-gradient-6);
      }

      .cls-4 {
        fill: url(#linear-gradient-3);
        stroke: url(#linear-gradient-4);
      }

      .cls-5 {
        fill: url(#linear-gradient);
        stroke: url(#linear-gradient-2);
      }
    </style>
    <linearGradient id="linear-gradient" x1="487.53" y1="21.44" x2="487.53" y2="164.46" gradientUnits="userSpaceOnUse">
      <stop offset="0" stop-color="#fff"/>
      <stop offset="1" stop-color="#231f20"/>
    </linearGradient>
    <linearGradient id="linear-gradient-2" x1="411.06" y1="173.31" x2="564" y2="20.36" gradientUnits="userSpaceOnUse">
      <stop offset="0" stop-color="#fff"/>
      <stop offset="1" stop-color="gray"/>
    </linearGradient>
    <linearGradient id="linear-gradient-3" x1="355.05" y1="22.12" x2="355.05" y2="171.55" gradientUnits="userSpaceOnUse">
      <stop offset="0" stop-color="#fff"/>
      <stop offset="1" stop-color="#fff100"/>
    </linearGradient>
    <linearGradient id="linear-gradient-4" x1="278.58" y1="173.31" x2="431.53" y2="20.36" gradientUnits="userSpaceOnUse">
      <stop offset="0" stop-color="#fff"/>
      <stop offset="1" stop-color="#625f60"/>
    </linearGradient>
    <linearGradient id="linear-gradient-5" x1="224" y1="23.25" x2="224" y2="168.16" gradientUnits="userSpaceOnUse">
      <stop offset="0" stop-color="#fff"/>
      <stop offset="1" stop-color="#c6187f"/>
    </linearGradient>
    <linearGradient id="linear-gradient-6" x1="147.53" y1="173.31" x2="300.47" y2="20.36" xlink:href="#linear-gradient-4"/>
    <linearGradient id="linear-gradient-7" x1="91.52" y1="24.61" x2="91.52" y2="170.73" gradientUnits="userSpaceOnUse">
      <stop offset="0" stop-color="#fff"/>
      <stop offset="1" stop-color="#06a0e1"/>
    </linearGradient>
    <linearGradient id="linear-gradient-8" x1="15.05" y1="173.31" x2="168" y2="20.36" xlink:href="#linear-gradient-4"/>
  </defs>
  <g>
    <path class="cls-1" d="M611.88,39.59h45.38c15.9,0,19.21.33,24.01,2.48,6.79,2.82,10.43,9.11,10.43,17.72,0,7.78-2.48,20.2-5.8,29.31-4.64,12.26-14.74,20.2-26.99,21.03-2.98.17-5.46.33-17.06.5h-28.15l-8.45,39.42h-16.89l23.52-110.46ZM643.35,96.06c16.23,0,21.53-1.66,25.34-8.11,2.32-4.14,5.63-17.89,5.63-23.85,0-8.78-2.82-10.27-19.05-10.27h-29.48l-8.94,42.23h26.5Z"/>
    <path class="cls-1" d="M719.04,72.71l-3.15,9.94.17.17c6.96-8.61,13.25-11.59,24.01-11.59s17.06,4.8,17.06,13.91c0,3.48-.33,5.63-2.48,15.4h-14.57c1.66-6.79,1.99-8.28,1.99-10.43,0-4.47-2.98-6.62-9.44-6.62-6.79,0-12.42,2.65-15.73,7.45-1.82,2.82-2.98,6.29-4.47,13.08l-9.77,46.04h-15.24l16.4-77.34h15.24Z"/>
    <path class="cls-1" d="M768.89,150.05h-15.24l16.4-77.34h15.24l-16.4,77.34ZM789.26,54h-15.24l3.15-14.41h15.24l-3.15,14.41Z"/>
    <path class="cls-1" d="M819.57,72.71l-2.98,11.92.33.17c5.46-8.94,14.08-13.08,27.33-13.08,15.73,0,23.85,4.97,23.85,14.74,0,3.31-.33,5.13-1.66,12.09l-11.1,51.5h-15.24l10.27-47.86c1.32-5.8,1.49-7.29,1.49-9.44,0-6.29-3.64-8.61-13.58-8.61-14.9,0-22.36,5.8-25.34,19.71l-9.77,46.21h-15.24l16.4-77.34h15.24Z"/>
    <path class="cls-1" d="M934.01,84.64h-29.64l-9.11,42.73c-.5,2.48-.83,4.8-.83,5.96,0,4.31,1.82,5.63,7.78,5.63,6.62,0,9.11-1.66,11.26-7.45,1.16-2.98,1.99-6.13,2.48-10.1h13.25c-2.32,11.59-3.31,14.9-5.96,18.88-5.13,7.78-12.09,10.76-24.84,10.76-13.75,0-20.04-3.97-20.04-12.59,0-2.65.16-4.14,1.32-9.61l9.44-44.22h-10.43l2.65-11.92h10.27l3.81-17.89h15.24l-3.81,17.89h29.64l-2.48,11.92Z"/>
    <path class="cls-1" d="M964.81,72.71l-2.82,11.76.17.17c6.46-9.27,14.24-12.92,27.16-12.92s20.54,4.8,20.7,13.75h.33c6.62-9.77,14.9-13.75,28.48-13.75,15.24,0,22.36,5.13,22.36,16.56,0,2.98-.33,5.8-1.49,10.93l-10.76,50.84h-15.24l10.43-49.35c.66-2.65,1.16-6.79,1.16-8.28,0-5.8-3.64-8.11-12.42-8.11-9.6,0-16.73,2.82-20.04,7.62-1.82,2.65-3.31,6.96-4.64,13.08l-9.61,45.05h-15.24l10.43-49.19c.83-3.31,1.49-7.95,1.49-9.11,0-4.97-4.31-7.45-12.75-7.45-14.57,0-21.36,5.96-24.68,21.36l-9.44,44.38h-15.24l16.4-77.34h15.24Z"/>
    <path class="cls-1" d="M1140.03,125.87c-3.48,19.21-12.75,25.17-38.92,25.17-22.03,0-30.31-5.13-30.31-18.88s5.96-37.92,11.43-46.37c6.46-10.1,16.23-14.08,34.94-14.08,10.6,0,17.22,1.16,21.69,3.48,4.64,2.82,7.29,8.11,7.29,15.07,0,5.47-.5,8.94-3.64,23.85h-53.99c-1.49,6.96-1.99,11.1-1.99,14.74,0,7.95,3.81,10.27,16.73,10.27,16.06,0,18.88-1.82,21.36-13.25h15.4ZM1129.43,103.85c1.49-7.95,1.66-9.11,1.66-11.1,0-7.45-3.48-9.44-16.4-9.44-16.4,0-20.04,3.15-23.68,20.54h38.42Z"/>
    <path class="cls-1" d="M1218.37,150.05h-14.9l2.98-11.26-.33-.17c-5.8,8.94-13.41,12.42-26.66,12.42-17.22,0-25.17-5.96-25.17-18.55,0-6.96,2.15-19.71,5.47-31.8,5.63-21.03,15.4-28.98,35.77-28.98,13.75,0,20.2,3.48,21.53,11.43l.33-.17,9.27-43.39h15.24l-23.52,110.46ZM1176.3,97.89c-3.15,9.61-5.8,23.19-5.8,29.31,0,8.78,3.81,11.59,15.57,11.59,12.59,0,18.22-3.64,21.53-13.91,3.31-10.1,5.96-23.02,5.96-28.48,0-8.94-4.31-12.26-16.23-12.26-12.59,0-17.72,3.31-21.03,13.75Z"/>
    <path class="cls-1" d="M1252.49,150.05h-15.24l16.4-77.34h15.24l-16.4,77.34ZM1272.86,54h-15.24l3.15-14.41h15.24l-3.15,14.41Z"/>
    <path class="cls-1" d="M1283.79,94.74c4.14-18.71,11.1-23.02,37.1-23.02,13.41,0,20.37,1.49,25.01,5.8,2.32,2.15,3.81,5.8,3.81,9.61,0,2.48-.83,9.11-1.49,12.09l-10.76,50.84h-15.24l2.98-9.44-.33-.17c-6.29,8.11-12.59,10.6-27.82,10.6-17.72,0-24.34-4.14-24.34-15.57,0-8.78,3.64-19.38,8.78-24.84,4.64-4.97,13.58-7.62,26.17-7.62,8.28,0,14.57.83,18.38,2.65,2.15.99,3.31,2.48,4.14,5.63h.33l2.32-10.93c.83-4.14,1.16-6.29,1.16-8.78,0-7.12-3.48-9.27-15.07-9.27-14.41,0-17.72,2.15-19.87,12.42h-15.24ZM1291.9,119.08c-1.66,2.82-3.15,8.78-3.15,13.08,0,5.3,4.14,7.29,15.9,7.29,10.76,0,17.56-1.99,20.37-5.96,1.82-2.65,3.15-7.62,3.15-11.92,0-5.63-4.8-7.78-17.39-7.78-11.26,0-16.4,1.49-18.88,5.3Z"/>
  </g>
  <polygon class="cls-5" points="447.74 22.12 563.49 22.12 527.32 171.55 411.57 171.55 447.74 22.12"/>
  <polygon class="cls-4" points="315.27 22.12 431.01 22.12 394.84 171.55 279.1 171.55 315.27 22.12"/>
  <polygon class="cls-3" points="184.21 22.12 299.96 22.12 263.79 171.55 148.04 171.55 184.21 22.12"/>
  <polygon class="cls-2" points="51.74 22.12 167.48 22.12 131.31 171.55 15.57 171.55 51.74 22.12"/>
</svg>